<svg xmlns="http://www.w3.org/2000/svg" viewBox="0 0 64 64">
  <defs>
    <linearGradient id="g" x1="0" y1="0" x2="1" y2="1">
      <stop offset="0%" stop-color="#6366f1"/>
      <stop offset="100%" stop-color="#8b5cf6"/>
    </linearGradient>
  </defs>
  <circle cx="32" cy="32" r="30" fill="url(#g)"/>
  <path
    d="M32 14c-9.94 0-18 8.06-18 18s8.06 18 18 18c3.02 0 5.87-.74 8.37-2.06l4.34 4.34a2.5 2.5 0 1 0 3.54-3.54l-4.33-4.33A17.9 17.9 0 0 0 50 32c0-9.94-8.06-18-18-18zm0 5a13 13 0 1 1 0 26 13 13 0 0 1 0-26z"
    fill="#ffffff"
  />
</svg>
